<?xml version="1.0" encoding="UTF-8" standalone="no"?>
<!-- Generator: Adobe Illustrator 25.0.0, SVG Export Plug-In . SVG Version: 6.00 Build 0)  -->

<svg
   version="1.1"
   id="Layer_1"
   x="0px"
   y="0px"
   viewBox="0 0 1307.0001 109"
   xml:space="preserve"
   sodipodi:docname="tbarblank.svg"
   width="1307"
   height="109"
   inkscape:version="1.2.2 (b0a8486541, 2022-12-01)"
   xmlns:inkscape="http://www.inkscape.org/namespaces/inkscape"
   xmlns:sodipodi="http://sodipodi.sourceforge.net/DTD/sodipodi-0.dtd"
   xmlns="http://www.w3.org/2000/svg"
   xmlns:svg="http://www.w3.org/2000/svg"><defs
   id="defs59" /><sodipodi:namedview
   id="namedview57"
   pagecolor="#505050"
   bordercolor="#ffffff"
   borderopacity="1"
   inkscape:showpageshadow="0"
   inkscape:pageopacity="0"
   inkscape:pagecheckerboard="1"
   inkscape:deskcolor="#505050"
   showgrid="false"
   inkscape:zoom="0.4665165"
   inkscape:cx="824.19379"
   inkscape:cy="12.861281"
   inkscape:window-width="1536"
   inkscape:window-height="923"
   inkscape:window-x="0"
   inkscape:window-y="0"
   inkscape:window-maximized="1"
   inkscape:current-layer="Layer_1" />
<style
   type="text/css"
   id="style2">
	.st0{fill:#FEFEFE;}
	.st1{fill:#000022;}
	.st2{fill:#87A9CB;}
</style>


























<g
   id="g1055"
   transform="matrix(0.66860158,0,0,1.2535212,20,20)"><g
     id="g1042"><path
       class="st0"
       d="m 2e-7,64.648941 c 0,-19.412658 0,-38.945146 0,-58.357804 C 631.66522,6.291137 1263.3304,6.291137 1894.8641,6.291137 c 0,21.090295 0,42.180589 0,63.270884 0,0.599156 0.6579,1.677637 -0.9212,1.318144 0,-19.172996 0,-38.465822 0,-57.638817 0,-0.119831 -0.1316,-0.239663 -0.1316,-0.359494 -0.1316,-0.119831 -0.2632,-0.239662 -0.2632,-0.359494 -0.9212,0 -1.7108,0 -2.5004,0 -20.6607,0 -41.3214,0 -62.1137,0 0,17.495359 0,34.751054 0,52.126581 -609.6885,0 -1219.37707,0 -1828.93399980000003,0 z M 35.399572,52.905482 c 0,-13.660759 0,-26.842194 0,-40.143459 -1.973954,0 -3.947908,0 -5.921862,0 0,7.789029 0,15.338396 0,23.007594 -0.921178,0 -1.71076,0 -2.763535,0 0,-2.037131 0,-4.074261 0,-6.111392 -1.052775,0 -1.842357,0 -3.026729,0 0,2.156962 0,4.074261 0,6.111392 -1.052776,0 -1.842357,0 -3.026729,0 0,-7.789029 0,-15.458227 0,-23.127425 -2.105551,0 -3.816311,0 -5.527071,0 0,13.540928 0,26.842193 0,40.143458 1.973954,0 3.816311,0 5.527071,0 0.131597,-1.797468 0.131597,-3.594936 0.263193,-5.392405 1.052776,0 1.842357,0 3.02673,0 0,-2.156961 0,-4.194092 0,-5.991561 1.184372,0 1.842357,0 2.763535,0 0,2.037131 0,3.954431 0,5.87173 1.052775,0.119831 1.973954,0.359494 3.026729,0.479325 0,1.797468 0,3.355274 0,5.032911 1.973954,0.119832 3.684714,0.119832 5.658668,0.119832 z M 272.14243,47.513077 c 0,-4.074262 0,-7.669198 0,-11.383966 -0.92118,-0.119831 -1.71076,-0.119831 -2.89513,-0.239663 0,-2.03713 0,-4.074261 0,-6.231223 -2.10555,0 -3.81631,0 -5.92186,0 0,-1.797468 0,-3.594937 0,-5.272574 -1.18438,-0.119831 -1.84236,-0.119831 -2.63194,-0.119831 0,-2.156962 0,-4.194093 0,-6.111392 1.97395,0 3.81631,0 5.92186,0 0,2.156962 0,4.194092 0,5.991561 2.10555,0 3.81631,0 5.65867,0 0,-2.037131 0,-3.95443 0,-5.87173 -1.05278,-0.119831 -1.84236,-0.239662 -2.89513,-0.359494 0,-1.797468 0,-3.355274 0,-4.91308 -4.07951,0 -7.89582,0 -11.84373,0 0,1.797469 0,3.355274 0,5.032912 -1.05277,0.239662 -1.97395,0.359493 -2.63194,0.479324 0,3.954431 0,7.549367 0,11.264135 0.92118,0.119831 1.71076,0.119831 2.89514,0.239663 0,2.03713 0,4.074261 0,6.231223 2.10555,0 3.81631,0 5.92186,0 0,1.9173 0,3.594937 0,5.272574 1.18437,0.119831 1.84235,0.119831 2.63194,0.119831 0,2.156962 0,4.194093 0,6.111392 -1.97396,0 -3.81631,0 -5.92187,0 0,-2.156962 0,-4.194093 0,-5.991561 -2.10555,0 -3.81631,0 -5.65866,0 0,2.037131 0,3.95443 0,5.87173 1.05277,0.119831 1.84235,0.239662 2.89513,0.359494 0,1.797468 0,3.355274 0,4.91308 4.0795,0 7.89581,0 11.84372,0 0,-1.797469 0,-3.355275 0,-5.032912 0.78958,-0.239662 1.57917,-0.359493 2.63194,-0.359493 z M 112.64696,12.642192 c 0,13.421096 0,26.842193 0,40.143458 5.00069,0 9.73818,0 14.73886,0 0,-1.797468 0,-3.355274 0,-5.032911 1.05277,-0.239662 1.97395,-0.359494 2.63194,-0.479325 0,-5.991561 0,-11.743459 0,-17.495358 -1.05278,-0.239662 -1.97396,-0.359494 -3.02673,-0.479325 0,-1.797468 0,-3.355274 0,-4.91308 -3.02673,-0.479325 -5.92186,0.239663 -8.817,-0.359493 0,-3.954431 0,-7.669199 0,-11.383966 -1.97395,0 -3.68471,0 -5.52707,0 z m 106.46191,17.135864 c 0,7.908861 0,15.578059 0,23.127426 1.97396,0 3.68472,0 5.52707,0 0,-7.78903 0,-15.458228 0,-23.127426 -0.92118,-0.119831 -1.71076,-0.119831 -2.89513,-0.239662 0,-1.797469 0,-3.475106 0,-5.392405 -3.15833,0 -5.79026,0 -8.81699,0 0,-2.037131 0,-3.95443 0,-5.87173 0,-1.9173 0.26319,-3.834599 -0.1316,-5.392405 -2.10555,0 -3.81631,0 -5.65867,0 0,13.421097 0,26.722362 0,40.023628 1.97396,0 3.81631,0 5.92186,0 0,-7.78903 0,-15.338397 0,-23.007595 2.10555,-0.119831 3.81631,-0.119831 6.05346,-0.119831 z M 106.33031,52.905482 c 0,-1.9173 0,-3.594937 0,-5.152743 -0.92118,-0.119831 -1.71076,-0.119831 -2.89513,-0.239662 0,-2.037131 0,-4.074262 0,-5.991561 -1.18437,-0.119832 -1.84236,-0.119832 -2.63194,-0.239663 0,-1.797468 0,-3.594936 0,-5.392405 1.05278,0 1.84236,0 2.89513,0 0,-2.156962 0,-4.194092 0,-6.351054 1.18438,0 1.84236,0 2.63194,0 0,-1.797469 0,-3.355274 0,-5.032912 -1.97395,0 -3.81631,0 -5.92186,0 0,1.797469 0,3.355275 0,5.032912 -1.052775,0.239662 -1.973954,0.359493 -3.026729,0.479325 0,2.03713 0,3.95443 0,5.871729 -0.921178,0 -1.71076,0 -2.895132,0 0,-7.789029 0,-15.458227 0,-23.127425 -2.105551,0 -3.816311,0 -5.658668,0 0,13.540928 0,26.842193 0,40.143459 1.973954,0 3.816311,0 5.658668,0 0.263194,-3.954431 -0.263194,-7.78903 0.263194,-11.383966 1.184372,0 1.842356,0 2.895132,0 0,2.03713 0,3.95443 0,5.871729 1.052775,0.119832 1.973954,0.239663 3.026725,0.479325 0,1.797469 0,3.355275 0,5.032912 1.97396,0 3.81631,0 5.65867,0 z m 65.53527,-23.127426 c 0,8.028692 0,15.578059 0,23.007594 2.10555,0 3.94791,0 5.52707,0 0,-7.789029 0,-15.338396 0,-22.887763 -1.05278,-0.119831 -1.97396,-0.359493 -3.02673,-0.479325 0,-1.797468 0,-3.355274 0,-5.032911 -4.86909,0 -9.60658,0 -14.47566,0 0,9.586498 0,19.053164 0,28.399999 2.10555,0 3.94791,0 5.92186,0 0,-7.789029 0,-15.338396 0,-23.007594 1.97395,0 3.68471,0 6.05346,0 z m 213.05541,0 c 0,7.908861 0,15.578059 0,23.007594 1.97396,0 3.94791,0 5.65867,0 0,-7.789029 0,-15.338396 0,-22.887763 -1.05278,-0.239662 -1.97396,-0.359493 -3.02673,-0.479325 0,-1.797468 0,-3.355274 0,-5.032911 -2.63194,0 -5.00068,0 -7.50102,0 -2.36875,0 -4.73749,-0.239662 -6.97464,0.119831 0,9.706329 0,19.053164 0,28.4 2.10555,0 3.94791,0 5.92186,0 0,-7.78903 0,-15.338397 0,-23.007595 1.84236,-0.119831 3.55312,-0.119831 5.92186,-0.119831 z M 58.95542,47.513077 c 0,-6.111393 0,-11.863291 0,-17.735021 -0.921178,-0.119831 -1.71076,-0.119831 -2.895132,-0.239662 0,-1.677637 0,-3.475106 0,-5.152743 -4.079504,0 -7.764218,0 -11.843723,0 0,1.797469 0,3.594937 0,5.392405 -1.184372,0 -1.842357,0 -2.895132,0 0.131597,5.991561 -0.263194,11.983122 0.263194,17.974683 1.052775,0 1.842357,0 2.763535,0 0,1.797468 0,3.355274 0,5.032911 4.079505,0 7.895815,0 11.843723,0 0,-1.797468 0,-3.355274 0,-5.032911 1.052775,-0.119831 1.842357,-0.239662 2.763535,-0.239662 z m 91.85465,-0.119832 c -3.15833,0 -5.92186,0 -8.6854,0 0,-2.03713 0,-3.95443 0,-6.231223 3.94791,0 7.76422,0 11.58053,0 0,-3.95443 0,-7.669198 0,-11.383966 -1.05277,-0.119831 -1.97395,-0.239662 -3.02673,-0.479325 0,-1.797468 0,-3.355274 0,-5.152742 -2.10555,0 -4.0795,0 -6.05345,0 -1.97396,0 -3.81632,0.119831 -5.92187,0.119831 0,1.9173 0,3.594937 0,5.152742 -0.92117,0.119832 -1.71076,0.119832 -2.63193,0.239663 0,5.991561 0,11.863291 0,17.73502 0.92117,0.119832 1.71076,0.119832 2.89513,0.239663 0,1.797468 0,3.475105 0,5.032911 4.0795,0 7.76422,0 11.58053,0 0.26319,-1.557806 0.26319,-3.115612 0.26319,-5.272574 z M 325.70238,29.778056 c 0,6.111392 0,11.863291 0,17.735021 0.92118,0.119831 1.71076,0.119831 2.89513,0.239662 0,1.677637 0,3.475105 0,5.152743 4.0795,0 7.76422,0 11.58053,0 0,-1.797469 0,-3.475106 0,-5.392405 -3.02673,0 -5.65867,0 -8.4222,0 0,-2.156962 0,-4.194093 0,-6.351055 3.9479,0 7.76421,0 11.44893,0 0,-3.834599 0,-7.549367 0,-11.264135 -0.92118,-0.119831 -1.84236,-0.239662 -2.89513,-0.359493 0,-1.797469 0,-3.355274 0,-5.032912 -4.07951,0 -7.89582,0 -11.84373,0 0,1.797469 0,3.355275 0,5.032912 -1.05277,0 -1.84235,0.119831 -2.76353,0.239662 z m 38.1631,23.127426 c 0,-1.9173 0,-3.594937 0,-5.272574 -2.89513,0 -5.65866,0 -8.5538,0 0,-2.156962 0,-4.194093 0,-6.351055 3.94791,0 7.63263,0 11.44894,0 0,-3.95443 0,-7.789029 0,-11.503797 -1.05278,0 -1.84236,-0.119831 -2.63194,-0.119831 -0.1316,-1.9173 -0.1316,-3.594937 -0.2632,-5.152743 -4.0795,0 -7.76421,0 -11.71212,0 0,1.797469 0,3.355275 0,5.032912 -1.05278,0.119831 -1.97396,0.239662 -2.76354,0.359493 0,5.991561 0,11.74346 0,17.61519 1.05278,0.119831 1.97396,0.239662 3.02673,0.479325 0,1.797468 0,3.355274 0,5.032911 3.81631,-0.119831 7.50103,-0.119831 11.44893,-0.119831 z M 79.879331,24.385651 c -5.263877,0 -10.001366,0 -14.607258,0 0,9.586498 0,19.053164 0,28.399999 1.973953,0 3.684713,0 5.790264,0 0,-7.789029 0,-15.458227 0,-23.127425 2.105551,0 3.816311,0 5.921861,0 0,2.156962 0,4.194093 0,5.991561 2.105551,0 3.816311,0 5.527071,0 0,-2.156962 0,-4.194093 0,-6.351055 -1.052775,0 -1.842357,0 -2.763535,0 0.131597,-1.557806 0.131597,-3.115611 0.131597,-4.91308 z M 307.93679,52.905482 c 0,-7.908861 0,-15.578059 0,-23.007595 1.97396,0 3.94791,0 5.92186,0 0,2.156962 0,4.074262 0,5.87173 2.10556,0 3.94791,0 5.52708,0 0,-2.156962 0,-4.074261 0,-5.87173 -0.92118,-0.119831 -1.71076,-0.119831 -2.76354,-0.239662 0,-1.677637 0,-3.475105 0,-5.152743 -5.00068,0 -9.73817,0 -14.60726,0 0,9.586498 0,19.053164 0,28.519831 1.84236,-0.119831 3.68472,-0.119831 5.92186,-0.119831 z M 186.34124,52.78565 c 4.2111,0 8.02741,0 11.71212,0 0,-1.797468 0,-3.355274 0,-5.272573 -2.89513,0 -5.79026,0 -8.68539,0 0,-6.111393 0,-11.863291 0,-17.974683 3.02673,0 5.92186,0 8.5538,0 0,-1.9173 0,-3.475106 0,-5.272574 -2.10555,0 -4.07951,0 -6.05346,0 -1.84236,0 -3.81631,0.119831 -5.92186,0.119831 0,2.037131 0,3.594937 0,5.152743 -0.92118,0.119831 -1.71076,0.239662 -2.50034,0.239662 0,5.991561 0,11.863291 0,17.735021 1.05277,0 1.71076,0.119831 2.76353,0.119831 0.1316,1.797468 0.1316,3.475105 0.1316,5.152742 z m 97.90811,-23.247256 c 3.15832,0 5.92186,0 8.68539,0 0,-1.797469 0,-3.355274 0,-5.032912 -3.9479,0 -7.76421,0 -11.84372,0 0,1.797469 0,3.355275 0,5.032912 -1.05277,0.119831 -1.97395,0.359493 -2.76353,0.479325 0,5.991561 0,11.743459 0,17.615189 0.92117,0.119831 1.71076,0.119831 2.76353,0.239662 0,1.677637 0,3.475106 0,5.152743 4.07951,0 7.76422,0 11.58053,0 0,-1.797468 0,-3.475106 0,-5.392405 -3.02673,0 -5.65867,0 -8.5538,0 0.1316,-6.111392 0.1316,-11.863291 0.1316,-18.094514 z"
       id="path4"
       style="stroke-width:1.25576" /><path
       class="st1"
       d="M 2e-7,64.648941 C 609.55693,64.648941 1219.2455,64.648941 1828.8024,64.648941 c 20.6607,0 41.3214,0 62.1137,0 0,-17.495358 0,-34.751054 0,-52.126581 0.7896,0 1.5792,0 2.5004,0 0.1316,0.119832 0.2632,0.239663 0.2632,0.359494 0.1316,0.119831 0.1316,0.239663 0.1316,0.359494 0,19.172995 0,38.465821 0,57.638817 C 1262.6724,70.999996 631.27043,70.999996 2e-7,70.999996 c 0,-2.156962 0,-4.194093 0,-6.351055 z"
       id="path6"
       style="stroke-width:1.25576" /><path
       class="st0"
       d="m 118.56883,29.778056 c 1.97395,0 3.68471,0 5.65866,0 0,5.87173 0,11.623628 0,17.615189 -1.71076,0 -3.55311,0 -5.65866,0 0,-5.751898 0,-11.503797 0,-17.615189 z"
       id="path42"
       style="stroke-width:1.25576" /><path
       class="st0"
       d="m 47.374891,47.393245 c 0,-5.991561 0,-11.743459 0,-17.615189 1.842357,0 3.553117,0 5.527071,0 0,0 0.131597,0 0.131597,0.119831 0.131597,0.119832 0.131597,0.239663 0.131597,0.359494 0,5.632067 0,11.264135 0,17.135864 -1.842357,0 -3.553117,0 -5.790265,0 z"
       id="path44"
       style="stroke-width:1.25576" /><path
       class="st0"
       d="m 142.12467,35.769617 c 0,-2.037131 0,-3.95443 0,-5.991561 1.84236,0 3.55312,0 5.52707,0 0,1.797468 0,3.834599 0,5.991561 -1.57916,0 -3.42152,0 -5.52707,0 z"
       id="path46"
       style="stroke-width:1.25576" /><path
       class="st0"
       d="m 331.49264,35.769617 c 0,-2.037131 0,-3.834599 0,-5.87173 1.84236,0 3.68472,0 5.79027,0 0,1.797469 0,3.714768 0,5.87173 -1.84236,0.359494 -3.81631,0.239663 -5.79027,0 z"
       id="path48"
       style="stroke-width:1.25576" /><path
       class="st0"
       d="m 360.97035,29.778056 c 0,2.037131 0,3.95443 0,5.991561 -1.84236,0 -3.55312,0 -5.65867,0 -0.39479,-1.797468 0,-3.834599 -0.26319,-5.991561 1.97395,0 3.68471,0 5.92186,0 z"
       id="path50"
       style="stroke-width:1.25576" /><rect
       style="fill:#88aacc;fill-opacity:1;stroke-width:7.79652"
       id="rect368"
       width="1895"
       height="6.2911396"
       x="0"
       y="0" /><rect
       style="fill:#ffffff;fill-opacity:1;stroke-width:1.93723"
       id="rect422"
       width="390.67563"
       height="49.852959"
       x="4.7172689"
       y="8.7912741" /><rect
       style="fill:#ffffff;fill-opacity:1;stroke-width:0.987701"
       id="rect1030"
       width="68.829239"
       height="54.677437"
       x="1825.1543"
       y="9.9705915" /></g></g></svg>
