<?xml version="1.0" encoding="UTF-8" standalone="no"?>
<!-- Generator: Adobe Illustrator 25.0.0, SVG Export Plug-In . SVG Version: 6.00 Build 0)  -->

<svg
   version="1.1"
   id="Layer_1"
   x="0px"
   y="0px"
   viewBox="0 0 1895.0001 71"
   xml:space="preserve"
   sodipodi:docname="AmigaOSHeader.svg"
   width="1895"
   height="71"
   inkscape:version="1.2.2 (b0a8486541, 2022-12-01)"
   xmlns:inkscape="http://www.inkscape.org/namespaces/inkscape"
   xmlns:sodipodi="http://sodipodi.sourceforge.net/DTD/sodipodi-0.dtd"
   xmlns="http://www.w3.org/2000/svg"
   xmlns:svg="http://www.w3.org/2000/svg"><defs
   id="defs59" /><sodipodi:namedview
   id="namedview57"
   pagecolor="#505050"
   bordercolor="#ffffff"
   borderopacity="1"
   inkscape:showpageshadow="0"
   inkscape:pageopacity="0"
   inkscape:pagecheckerboard="1"
   inkscape:deskcolor="#505050"
   showgrid="false"
   inkscape:zoom="4.6637153"
   inkscape:cx="1886.9076"
   inkscape:cy="12.007594"
   inkscape:window-width="1536"
   inkscape:window-height="923"
   inkscape:window-x="0"
   inkscape:window-y="0"
   inkscape:window-maximized="1"
   inkscape:current-layer="Layer_1" />
<style
   type="text/css"
   id="style2">
	.st0{fill:#FEFEFE;}
	.st1{fill:#000022;}
	.st2{fill:#87A9CB;}
</style>


























<g
   id="g952"
   transform="scale(1,0.8987342)"><g
     id="g314"
     transform="matrix(1.3159692,0,0,1.3333333,-21.055507,-52.999999)"><path
       class="st0"
       d="m 16,93.7 c 0,-16.2 0,-32.5 0,-48.7 480,0 960,0 1439.9,0 0,17.6 0,35.2 0,52.8 0,0.5 0.5,1.4 -0.7,1.1 0,-16 0,-32.1 0,-48.1 0,-0.1 -0.1,-0.2 -0.1,-0.3 -0.1,-0.1 -0.2,-0.2 -0.2,-0.3 -0.7,0 -1.3,0 -1.9,0 -15.7,0 -31.4,0 -47.2,0 0,14.6 0,29 0,43.5 -463.3,0 -926.6,0 -1389.8,0 z m 26.9,-9.8 c 0,-11.4 0,-22.4 0,-33.5 -1.5,0 -3,0 -4.5,0 0,6.5 0,12.8 0,19.2 -0.7,0 -1.3,0 -2.1,0 0,-1.7 0,-3.4 0,-5.1 -0.8,0 -1.4,0 -2.3,0 0,1.8 0,3.4 0,5.1 -0.8,0 -1.4,0 -2.3,0 0,-6.5 0,-12.9 0,-19.3 -1.6,0 -2.9,0 -4.2,0 0,11.3 0,22.4 0,33.5 1.5,0 2.9,0 4.2,0 0.1,-1.5 0.1,-3 0.2,-4.5 0.8,0 1.4,0 2.3,0 0,-1.8 0,-3.5 0,-5 0.9,0 1.4,0 2.1,0 0,1.7 0,3.3 0,4.9 0.8,0.1 1.5,0.3 2.3,0.4 0,1.5 0,2.8 0,4.2 1.5,0.1 2.8,0.1 4.3,0.1 z m 179.9,-4.5 c 0,-3.4 0,-6.4 0,-9.5 -0.7,-0.1 -1.3,-0.1 -2.2,-0.2 0,-1.7 0,-3.4 0,-5.2 -1.6,0 -2.9,0 -4.5,0 0,-1.5 0,-3 0,-4.4 -0.9,-0.1 -1.4,-0.1 -2,-0.1 0,-1.8 0,-3.5 0,-5.1 1.5,0 2.9,0 4.5,0 0,1.8 0,3.5 0,5 1.6,0 2.9,0 4.3,0 0,-1.7 0,-3.3 0,-4.9 -0.8,-0.1 -1.4,-0.2 -2.2,-0.3 0,-1.5 0,-2.8 0,-4.1 -3.1,0 -6,0 -9,0 0,1.5 0,2.8 0,4.2 -0.8,0.2 -1.5,0.3 -2,0.4 0,3.3 0,6.3 0,9.4 0.7,0.1 1.3,0.1 2.2,0.2 0,1.7 0,3.4 0,5.2 1.6,0 2.9,0 4.5,0 0,1.6 0,3 0,4.4 0.9,0.1 1.4,0.1 2,0.1 0,1.8 0,3.5 0,5.1 -1.5,0 -2.9,0 -4.5,0 0,-1.8 0,-3.5 0,-5 -1.6,0 -2.9,0 -4.3,0 0,1.7 0,3.3 0,4.9 0.8,0.1 1.4,0.2 2.2,0.3 0,1.5 0,2.8 0,4.1 3.1,0 6,0 9,0 0,-1.5 0,-2.8 0,-4.2 0.6,-0.2 1.2,-0.3 2,-0.3 z M 101.6,50.3 c 0,11.2 0,22.4 0,33.5 3.8,0 7.4,0 11.2,0 0,-1.5 0,-2.8 0,-4.2 0.8,-0.2 1.5,-0.3 2,-0.4 0,-5 0,-9.8 0,-14.6 -0.8,-0.2 -1.5,-0.3 -2.3,-0.4 0,-1.5 0,-2.8 0,-4.1 -2.3,-0.4 -4.5,0.2 -6.7,-0.3 0,-3.3 0,-6.4 0,-9.5 -1.5,0 -2.8,0 -4.2,0 z m 80.9,14.3 c 0,6.6 0,13 0,19.3 1.5,0 2.8,0 4.2,0 0,-6.5 0,-12.9 0,-19.3 -0.7,-0.1 -1.3,-0.1 -2.2,-0.2 0,-1.5 0,-2.9 0,-4.5 -2.4,0 -4.4,0 -6.7,0 0,-1.7 0,-3.3 0,-4.9 0,-1.6 0.2,-3.2 -0.1,-4.5 -1.6,0 -2.9,0 -4.3,0 0,11.2 0,22.3 0,33.4 1.5,0 2.9,0 4.5,0 0,-6.5 0,-12.8 0,-19.2 1.6,-0.1 2.9,-0.1 4.6,-0.1 z M 96.8,83.9 c 0,-1.6 0,-3 0,-4.3 -0.7,-0.1 -1.3,-0.1 -2.2,-0.2 0,-1.7 0,-3.4 0,-5 -0.9,-0.1 -1.4,-0.1 -2,-0.2 0,-1.5 0,-3 0,-4.5 0.8,0 1.4,0 2.2,0 0,-1.8 0,-3.5 0,-5.3 0.9,0 1.4,0 2,0 0,-1.5 0,-2.8 0,-4.2 -1.5,0 -2.9,0 -4.5,0 0,1.5 0,2.8 0,4.2 -0.8,0.2 -1.5,0.3 -2.3,0.4 0,1.7 0,3.3 0,4.9 -0.7,0 -1.3,0 -2.2,0 0,-6.5 0,-12.9 0,-19.3 -1.6,0 -2.9,0 -4.3,0 0,11.3 0,22.4 0,33.5 1.5,0 2.9,0 4.3,0 0.2,-3.3 -0.2,-6.5 0.2,-9.5 0.9,0 1.4,0 2.2,0 0,1.7 0,3.3 0,4.9 0.8,0.1 1.5,0.2 2.3,0.4 0,1.5 0,2.8 0,4.2 1.5,0 2.9,0 4.3,0 z m 49.8,-19.3 c 0,6.7 0,13 0,19.2 1.6,0 3,0 4.2,0 0,-6.5 0,-12.8 0,-19.1 -0.8,-0.1 -1.5,-0.3 -2.3,-0.4 0,-1.5 0,-2.8 0,-4.2 -3.7,0 -7.3,0 -11,0 0,8 0,15.9 0,23.7 1.6,0 3,0 4.5,0 0,-6.5 0,-12.8 0,-19.2 1.5,0 2.8,0 4.6,0 z m 161.9,0 c 0,6.6 0,13 0,19.2 1.5,0 3,0 4.3,0 0,-6.5 0,-12.8 0,-19.1 -0.8,-0.2 -1.5,-0.3 -2.3,-0.4 0,-1.5 0,-2.8 0,-4.2 -2,0 -3.8,0 -5.7,0 -1.8,0 -3.6,-0.2 -5.3,0.1 0,8.1 0,15.9 0,23.7 1.6,0 3,0 4.5,0 0,-6.5 0,-12.8 0,-19.2 1.4,-0.1 2.7,-0.1 4.5,-0.1 z M 60.8,79.4 c 0,-5.1 0,-9.9 0,-14.8 -0.7,-0.1 -1.3,-0.1 -2.2,-0.2 0,-1.4 0,-2.9 0,-4.3 -3.1,0 -5.9,0 -9,0 0,1.5 0,3 0,4.5 -0.9,0 -1.4,0 -2.2,0 0.1,5 -0.2,10 0.2,15 0.8,0 1.4,0 2.1,0 0,1.5 0,2.8 0,4.2 3.1,0 6,0 9,0 0,-1.5 0,-2.8 0,-4.2 0.8,-0.1 1.4,-0.2 2.1,-0.2 z m 69.8,-0.1 c -2.4,0 -4.5,0 -6.6,0 0,-1.7 0,-3.3 0,-5.2 3,0 5.9,0 8.8,0 0,-3.3 0,-6.4 0,-9.5 -0.8,-0.1 -1.5,-0.2 -2.3,-0.4 0,-1.5 0,-2.8 0,-4.3 -1.6,0 -3.1,0 -4.6,0 -1.5,0 -2.9,0.1 -4.5,0.1 0,1.6 0,3 0,4.3 -0.7,0.1 -1.3,0.1 -2,0.2 0,5 0,9.9 0,14.8 0.7,0.1 1.3,0.1 2.2,0.2 0,1.5 0,2.9 0,4.2 3.1,0 5.9,0 8.8,0 0.2,-1.3 0.2,-2.6 0.2,-4.4 z M 263.5,64.6 c 0,5.1 0,9.9 0,14.8 0.7,0.1 1.3,0.1 2.2,0.2 0,1.4 0,2.9 0,4.3 3.1,0 5.9,0 8.8,0 0,-1.5 0,-2.9 0,-4.5 -2.3,0 -4.3,0 -6.4,0 0,-1.8 0,-3.5 0,-5.3 3,0 5.9,0 8.7,0 0,-3.2 0,-6.3 0,-9.4 -0.7,-0.1 -1.4,-0.2 -2.2,-0.3 0,-1.5 0,-2.8 0,-4.2 -3.1,0 -6,0 -9,0 0,1.5 0,2.8 0,4.2 -0.8,0 -1.4,0.1 -2.1,0.2 z m 29,19.3 c 0,-1.6 0,-3 0,-4.4 -2.2,0 -4.3,0 -6.5,0 0,-1.8 0,-3.5 0,-5.3 3,0 5.8,0 8.7,0 0,-3.3 0,-6.5 0,-9.6 -0.8,0 -1.4,-0.1 -2,-0.1 -0.1,-1.6 -0.1,-3 -0.2,-4.3 -3.1,0 -5.9,0 -8.9,0 0,1.5 0,2.8 0,4.2 -0.8,0.1 -1.5,0.2 -2.1,0.3 0,5 0,9.8 0,14.7 0.8,0.1 1.5,0.2 2.3,0.4 0,1.5 0,2.8 0,4.2 2.9,-0.1 5.7,-0.1 8.7,-0.1 z M 76.7,60.1 c -4,0 -7.6,0 -11.1,0 0,8 0,15.9 0,23.7 1.5,0 2.8,0 4.4,0 0,-6.5 0,-12.9 0,-19.3 1.6,0 2.9,0 4.5,0 0,1.8 0,3.5 0,5 1.6,0 2.9,0 4.2,0 0,-1.8 0,-3.5 0,-5.3 -0.8,0 -1.4,0 -2.1,0 0.1,-1.3 0.1,-2.6 0.1,-4.1 z M 250,83.9 c 0,-6.6 0,-13 0,-19.2 1.5,0 3,0 4.5,0 0,1.8 0,3.4 0,4.9 1.6,0 3,0 4.2,0 0,-1.8 0,-3.4 0,-4.9 -0.7,-0.1 -1.3,-0.1 -2.1,-0.2 0,-1.4 0,-2.9 0,-4.3 -3.8,0 -7.4,0 -11.1,0 0,8 0,15.9 0,23.8 1.4,-0.1 2.8,-0.1 4.5,-0.1 z m -92.4,-0.1 c 3.2,0 6.1,0 8.9,0 0,-1.5 0,-2.8 0,-4.4 -2.2,0 -4.4,0 -6.6,0 0,-5.1 0,-9.9 0,-15 2.3,0 4.5,0 6.5,0 0,-1.6 0,-2.9 0,-4.4 -1.6,0 -3.1,0 -4.6,0 -1.4,0 -2.9,0.1 -4.5,0.1 0,1.7 0,3 0,4.3 -0.7,0.1 -1.3,0.2 -1.9,0.2 0,5 0,9.9 0,14.8 0.8,0 1.3,0.1 2.1,0.1 0.1,1.5 0.1,2.9 0.1,4.3 z M 232,64.4 c 2.4,0 4.5,0 6.6,0 0,-1.5 0,-2.8 0,-4.2 -3,0 -5.9,0 -9,0 0,1.5 0,2.8 0,4.2 -0.8,0.1 -1.5,0.3 -2.1,0.4 0,5 0,9.8 0,14.7 0.7,0.1 1.3,0.1 2.1,0.2 0,1.4 0,2.9 0,4.3 3.1,0 5.9,0 8.8,0 0,-1.5 0,-2.9 0,-4.5 -2.3,0 -4.3,0 -6.5,0 0.1,-5.1 0.1,-9.9 0.1,-15.1 z"
       id="path4" /><path
       class="st1"
       d="m 16,93.7 c 463.2,0 926.5,0 1389.7,0 15.7,0 31.4,0 47.2,0 0,-14.6 0,-29 0,-43.5 0.6,0 1.2,0 1.9,0 0.1,0.1 0.2,0.2 0.2,0.3 0.1,0.1 0.1,0.2 0.1,0.3 0,16 0,32.1 0,48.1 C 975.5,99 495.7,99 16,99 c 0,-1.8 0,-3.5 0,-5.3 z"
       id="path6" /><path
       class="st2"
       d="m 1452.9,50.2 c 0,14.4 0,28.9 0,43.5 -15.9,0 -31.5,0 -47.2,0 0,-14.4 0,-28.9 0,-43.5 15.9,0 31.6,0 47.2,0 z m -40.3,4.6 c 0,8.4 0,16.5 0,24.7 1.6,0 3.1,0 4.5,0 1.4,0 2.9,0.1 4.5,0.1 0,3.4 0,6.5 0,9.6 8.1,0 16.1,0 24,0 0.1,0 0.2,-0.1 0.3,-0.1 0.1,-0.1 0.2,-0.2 0.1,-0.1 0,-8.2 0,-16.3 0,-24.5 -1.7,0 -3.3,0 -4.9,0 -1.6,0 -3.1,0 -4.8,0 0,-3.4 0,-6.5 0,-9.7 -7.9,0 -15.8,0 -23.7,0 z"
       id="path8" /><path
       class="st1"
       d="m 42.9,83.9 c -1.5,0 -2.8,0 -4.3,0 0,-1.4 0,-2.7 0,-4.2 -0.8,-0.1 -1.5,-0.2 -2.3,-0.4 0,-1.6 0,-3.2 0,-4.9 -0.7,0 -1.3,0 -2.1,0 0,1.5 0,3.2 0,5 -0.9,0 -1.4,0 -2.3,0 -0.1,1.5 -0.1,3 -0.2,4.5 -1.4,0 -2.7,0 -4.2,0 0,-11.1 0,-22.2 0,-33.5 1.3,0 2.6,0 4.2,0 0,6.3 0,12.7 0,19.3 0.8,0 1.4,0 2.3,0 0,-1.6 0,-3.3 0,-5.1 0.8,0 1.4,0 2.3,0 0,1.7 0,3.4 0,5.1 0.8,0 1.4,0 2.1,0 0,-6.4 0,-12.7 0,-19.2 1.5,0 3,0 4.5,0 0,11 0,22 0,33.4 z"
       id="path10" /><path
       class="st1"
       d="m 222.8,79.4 c -0.7,0.1 -1.3,0.1 -2,0.2 0,1.4 0,2.7 0,4.2 -3,0 -6,0 -9,0 0,-1.3 0,-2.7 0,-4.1 -0.8,-0.1 -1.5,-0.2 -2.2,-0.3 0,-1.6 0,-3.2 0,-4.9 1.3,0 2.7,0 4.3,0 0,1.5 0,3.2 0,5 1.6,0 2.9,0 4.5,0 0,-1.6 0,-3.2 0,-5.1 -0.6,0 -1.1,-0.1 -2,-0.1 0,-1.4 0,-2.8 0,-4.4 -1.6,0 -2.9,0 -4.5,0 0,-1.8 0,-3.5 0,-5.2 -0.8,-0.1 -1.4,-0.2 -2.2,-0.2 0,-3.1 0,-6.2 0,-9.4 0.5,-0.1 1.2,-0.2 2,-0.4 0,-1.3 0,-2.6 0,-4.2 3,0 6,0 9,0 0,1.3 0,2.7 0,4.1 0.8,0.1 1.5,0.2 2.2,0.3 0,1.6 0,3.2 0,4.9 -1.3,0 -2.7,0 -4.3,0 0,-1.5 0,-3.2 0,-5 -1.6,0 -2.9,0 -4.5,0 0,1.5 0,3.2 0,5.1 0.6,0 1.1,0.1 2,0.1 0,1.4 0,2.8 0,4.4 1.6,0 2.9,0 4.5,0 0,1.8 0,3.5 0,5.2 0.8,0.1 1.4,0.2 2.2,0.2 0,3.1 0,6.2 0,9.6 z"
       id="path12" /><path
       class="st1"
       d="m 101.6,50.3 c 1.4,0 2.8,0 4.3,0 0,3.1 0,6.2 0,9.5 2.3,0.5 4.5,0 6.7,0.3 0,1.3 0,2.6 0,4.1 0.8,0.1 1.5,0.3 2.3,0.4 0,4.8 0,9.6 0,14.6 -0.5,0.1 -1.2,0.2 -2,0.4 0,1.3 0,2.6 0,4.2 -3.8,0 -7.5,0 -11.2,0 -0.1,-11.1 -0.1,-22.3 -0.1,-33.5 z m 4.5,14.3 c 0,5.1 0,10 0,14.7 1.5,0 3,0 4.3,0 0,-5 0,-9.8 0,-14.7 -1.5,0 -2.9,0 -4.3,0 z"
       id="path14" /><path
       class="st1"
       d="m 182.5,64.6 c -1.7,0 -3.1,0 -4.5,0 0,6.4 0,12.7 0,19.2 -1.6,0 -3,0 -4.5,0 0,-11.1 0,-22.2 0,-33.4 1.3,0 2.7,0 4.3,0 0.3,1.4 0.1,3 0.1,4.5 0,1.6 0,3.2 0,4.9 2.2,0 4.3,0 6.7,0 0,1.6 0,3 0,4.5 0.8,0.1 1.4,0.1 2.2,0.2 0,6.4 0,12.8 0,19.3 -1.4,0 -2.7,0 -4.2,0 -0.1,-6.3 -0.1,-12.6 -0.1,-19.2 z"
       id="path16" /><path
       class="st1"
       d="m 96.8,83.9 c -1.5,0 -2.8,0 -4.3,0 0,-1.4 0,-2.7 0,-4.2 -0.8,-0.1 -1.5,-0.2 -2.3,-0.4 0,-1.6 0,-3.2 0,-4.9 -0.7,0 -1.3,0 -2.2,0 -0.4,3 0,6.2 -0.2,9.5 -1.4,0 -2.7,0 -4.3,0 0,-11.1 0,-22.2 0,-33.5 1.3,0 2.7,0 4.3,0 0,6.4 0,12.8 0,19.3 0.9,0 1.4,0 2.2,0 0,-1.6 0,-3.2 0,-4.9 0.8,-0.2 1.5,-0.3 2.3,-0.4 0,-1.3 0,-2.7 0,-4.2 1.6,0 3,0 4.5,0 0,1.4 0,2.7 0,4.2 -0.6,0 -1.2,0 -2,0 0,1.8 0,3.5 0,5.3 -0.9,0 -1.4,0 -2.2,0 0,1.5 0,3 0,4.5 0.6,0.1 1.2,0.1 2,0.2 0,1.6 0,3.3 0,5 0.9,0.1 1.4,0.2 2.2,0.2 0,1.3 0,2.7 0,4.3 z"
       id="path18" /><path
       class="st1"
       d="m 146.6,64.6 c -1.7,0 -3,0 -4.5,0 0,6.4 0,12.7 0,19.2 -1.5,0 -2.9,0 -4.5,0 0,-7.8 0,-15.7 0,-23.7 3.7,0 7.3,0 11,0 0,1.3 0,2.7 0,4.2 0.8,0.1 1.5,0.3 2.3,0.4 0,6.3 0,12.6 0,19.1 -1.3,0 -2.7,0 -4.2,0 -0.1,-6.3 -0.1,-12.6 -0.1,-19.2 z"
       id="path20" /><path
       class="st1"
       d="m 308.5,64.6 c -1.7,0 -3,0 -4.5,0 0,6.4 0,12.7 0,19.2 -1.5,0 -2.9,0 -4.5,0 0,-7.7 0,-15.6 0,-23.7 1.6,-0.3 3.5,-0.1 5.3,-0.1 1.9,0 3.7,0 5.7,0 0,1.4 0,2.8 0,4.2 0.8,0.1 1.5,0.3 2.3,0.4 0,6.3 0,12.6 0,19.1 -1.3,0 -2.7,0 -4.3,0 0,-6.2 0,-12.5 0,-19.1 z"
       id="path22" /><path
       class="st1"
       d="m 60.8,79.4 c -0.7,0.1 -1.3,0.1 -2,0.2 0,1.4 0,2.7 0,4.2 -3.1,0 -6,0 -9,0 0,-1.4 0,-2.7 0,-4.2 -0.7,0 -1.3,0 -2.1,0 -0.3,-5 -0.1,-10 -0.2,-15 0.7,0 1.3,0 2.2,0 0,-1.6 0,-3 0,-4.5 3.1,0 5.9,0 9,0 0,1.4 0,2.8 0,4.3 0.9,0.1 1.4,0.2 2.2,0.2 -0.1,4.8 -0.1,9.7 -0.1,14.8 z M 52,79.3 c 1.7,0 3,0 4.4,0 0,-4.8 0,-9.6 0,-14.3 0,-0.1 -0.1,-0.2 -0.1,-0.3 -0.1,-0.1 -0.2,-0.2 -0.1,-0.1 -1.5,0 -2.8,0 -4.2,0 0,5 0,9.8 0,14.7 z"
       id="path24" /><path
       class="st1"
       d="m 130.6,79.3 c 0,1.7 0,3.1 0,4.5 -2.9,0 -5.7,0 -8.8,0 0,-1.3 0,-2.8 0,-4.2 -0.8,-0.1 -1.4,-0.2 -2.2,-0.2 0,-4.9 0,-9.8 0,-14.8 0.7,-0.1 1.2,-0.1 2,-0.2 0,-1.3 0,-2.7 0,-4.3 1.6,0 3,-0.1 4.5,-0.1 1.5,0 3,0 4.6,0 0,1.5 0,2.8 0,4.3 0.8,0.1 1.5,0.2 2.3,0.4 0,3.1 0,6.2 0,9.5 -2.9,0 -5.8,0 -8.8,0 0,1.8 0,3.4 0,5.2 1.9,-0.1 4,-0.1 6.4,-0.1 z M 124,69.6 c 1.6,0 3,0 4.2,0 0,-1.8 0,-3.5 0,-5 -1.5,0 -2.9,0 -4.2,0 0,1.7 0,3.3 0,5 z"
       id="path26" /><path
       class="st1"
       d="m 263.5,64.6 c 0.7,-0.1 1.3,-0.1 2,-0.2 0,-1.4 0,-2.7 0,-4.2 3,0 6,0 9,0 0,1.3 0,2.7 0,4.2 0.8,0.1 1.5,0.2 2.2,0.3 0,3.1 0,6.2 0,9.4 -2.9,0 -5.7,0 -8.7,0 0,1.8 0,3.5 0,5.3 2,0 4.1,0 6.4,0 0,1.5 0,3 0,4.5 -2.8,0 -5.7,0 -8.8,0 0,-1.4 0,-2.8 0,-4.3 -0.8,-0.1 -1.4,-0.2 -2.2,-0.2 0.1,-4.9 0.1,-9.7 0.1,-14.8 z m 4.4,5 c 1.5,0.2 3,0.3 4.4,0 0,-1.8 0,-3.4 0,-4.9 -1.6,0 -3,0 -4.4,0 0,1.7 0,3.2 0,4.9 z"
       id="path28" /><path
       class="st1"
       d="m 292.5,83.9 c -3,0 -5.8,0 -8.8,0 0,-1.4 0,-2.7 0,-4.2 -0.8,-0.1 -1.5,-0.2 -2.3,-0.4 0,-4.9 0,-9.7 0,-14.7 0.6,-0.1 1.3,-0.2 2.1,-0.3 0,-1.4 0,-2.7 0,-4.2 3,0 5.8,0 8.9,0 0.1,1.3 0.1,2.7 0.2,4.3 0.6,0 1.2,0.1 2,0.1 0,3.2 0,6.3 0,9.6 -2.9,0 -5.7,0 -8.7,0 0,1.8 0,3.5 0,5.3 2.2,0 4.2,0 6.5,0 0.1,1.5 0.1,2.8 0.1,4.5 z m -2.2,-19.3 c -1.7,0 -3,0 -4.5,0 0.2,1.8 -0.2,3.5 0.2,5 1.6,0 2.9,0 4.3,0 0,-1.7 0,-3.3 0,-5 z"
       id="path30" /><path
       class="st1"
       d="m 76.7,60.1 c 0,1.4 0,2.8 0,4.2 0.7,0 1.3,0 2.1,0 0,1.8 0,3.5 0,5.3 -1.3,0 -2.6,0 -4.2,0 0,-1.6 0,-3.3 0,-5 -1.6,0 -2.9,0 -4.5,0 0,6.3 0,12.8 0,19.3 -1.6,0 -2.9,0 -4.4,0 0,-7.8 0,-15.7 0,-23.7 3.5,-0.1 7,-0.1 11,-0.1 z"
       id="path32" /><path
       class="st1"
       d="m 250,83.9 c -1.7,0 -3,0 -4.5,0 0,-8 0,-15.9 0,-23.8 3.7,0 7.3,0 11.1,0 0,1.4 0,2.9 0,4.3 0.8,0.1 1.4,0.2 2.1,0.2 0,1.6 0,3.2 0,4.9 -1.3,0 -2.7,0 -4.2,0 0,-1.5 0,-3.1 0,-4.9 -1.5,0 -3,0 -4.5,0 0,6.3 0,12.7 0,19.3 z"
       id="path34" /><path
       class="st1"
       d="m 157.6,83.8 c 0,-1.5 0,-2.8 0,-4.3 -0.7,0 -1.3,-0.1 -2.1,-0.1 0,-4.9 0,-9.8 0,-14.8 0.6,-0.1 1.2,-0.1 1.9,-0.2 0,-1.3 0,-2.6 0,-4.3 1.6,0 3,-0.1 4.5,-0.1 1.5,0 3,0 4.6,0 0,1.5 0,2.8 0,4.4 -2.1,0 -4.3,0 -6.5,0 0,5.1 0,9.9 0,15 2.1,0 4.3,0 6.6,0 0,1.6 0,2.9 0,4.4 -2.9,0 -5.7,0 -9,0 z"
       id="path36" /><path
       class="st1"
       d="m 232,64.4 c 0,5.2 0,10.1 0,15 2.2,0 4.2,0 6.5,0 0,1.6 0,3 0,4.5 -2.9,0 -5.7,0 -8.8,0 0,-1.4 0,-2.9 0,-4.3 -0.9,-0.1 -1.4,-0.2 -2.1,-0.2 0,-4.9 0,-9.7 0,-14.7 0.6,-0.1 1.2,-0.2 2.1,-0.4 0,-1.3 0,-2.7 0,-4.2 3.1,0 6,0 9,0 0,1.4 0,2.7 0,4.2 -2.3,0.1 -4.4,0.1 -6.7,0.1 z"
       id="path38" /><path
       class="st1"
       d="m 1412.6,54.8 c 8,0 15.8,0 23.7,0 0,3.1 0,6.2 0,9.7 1.7,0 3.3,0 4.8,0 1.6,0 3.2,0 4.9,0 0,8.2 0,16.3 0,24.5 0,0 0,0.1 -0.1,0.1 -0.1,0.1 -0.2,0.1 -0.3,0.1 -8,0 -15.9,0 -24,0 0,-3.2 0,-6.3 0,-9.6 -1.6,0 -3,-0.1 -4.5,-0.1 -1.5,0 -3,0 -4.5,0 0,-8.2 0,-16.3 0,-24.7 z m 10.4,29 c 6.9,0 13.5,0 20.2,0 -0.1,-4.8 0.1,-9.5 -0.1,-14 -6.9,0 -13.5,0 -20.1,0 0,4.8 0,9.3 0,14 z m -8.2,-9.7 c 2.4,0 4.5,0 6.7,0 0,-1.7 0,-3.3 0,-4.9 0,-1.6 -0.2,-3.2 0.2,-4.8 4.5,0 8.8,0 13.2,0 0,-1.5 0,-2.8 0,-4.2 -6.7,0 -13.4,0 -20.1,0 0,4.6 0,9.2 0,13.9 z"
       id="path40" /><path
       class="st0"
       d="m 106.1,64.6 c 1.5,0 2.8,0 4.3,0 0,4.9 0,9.7 0,14.7 -1.3,0 -2.7,0 -4.3,0 0,-4.8 0,-9.6 0,-14.7 z"
       id="path42" /><path
       class="st0"
       d="m 52,79.3 c 0,-5 0,-9.8 0,-14.7 1.4,0 2.7,0 4.2,0 0,0 0.1,0 0.1,0.1 0.1,0.1 0.1,0.2 0.1,0.3 0,4.7 0,9.4 0,14.3 -1.4,0 -2.7,0 -4.4,0 z"
       id="path44" /><path
       class="st0"
       d="m 124,69.6 c 0,-1.7 0,-3.3 0,-5 1.4,0 2.7,0 4.2,0 0,1.5 0,3.2 0,5 -1.2,0 -2.6,0 -4.2,0 z"
       id="path46" /><path
       class="st0"
       d="m 267.9,69.6 c 0,-1.7 0,-3.2 0,-4.9 1.4,0 2.8,0 4.4,0 0,1.5 0,3.1 0,4.9 -1.4,0.3 -2.9,0.2 -4.4,0 z"
       id="path48" /><path
       class="st0"
       d="m 290.3,64.6 c 0,1.7 0,3.3 0,5 -1.4,0 -2.7,0 -4.3,0 -0.3,-1.5 0,-3.2 -0.2,-5 1.5,0 2.8,0 4.5,0 z"
       id="path50" /><path
       class="st0"
       d="m 1423,83.8 c 0,-4.7 0,-9.3 0,-14 6.6,0 13.2,0 20.1,0 0.2,4.5 0,9.2 0.1,14 -6.7,0 -13.3,0 -20.2,0 z"
       id="path52" /><path
       class="st2"
       d="m 1414.8,74.1 c 0,-4.7 0,-9.3 0,-14 6.7,0 13.4,0 20.1,0 0,1.4 0,2.8 0,4.2 -4.4,0 -8.7,0 -13.2,0 -0.4,1.6 -0.2,3.2 -0.2,4.8 0,1.6 0,3.2 0,4.9 -2.2,0.1 -4.3,0.1 -6.7,0.1 z"
       id="path54" /></g><rect
     style="fill:#88aacc;fill-opacity:1;stroke-width:8.22404"
     id="rect368"
     width="1895"
     height="7"
     x="0"
     y="0" /></g></svg>
